<?xml version="1.0" encoding="UTF-8"?>
<svg width="390px" height="392px" viewBox="0 0 390 392" version="1.1" xmlns="http://www.w3.org/2000/svg" xmlns:xlink="http://www.w3.org/1999/xlink">
    <title>Combined Shape</title>
    <g id="Page-1" stroke="none" stroke-width="1" fill="none" fill-rule="evenodd">
        <path d="M196.010205,0 C293.015255,0 373.713334,70.5546936 389.305982,162.783985 L389.305982,162.783985 L358.814599,162.783985 C343.528089,87.1473942 276.381736,29.8382881 196.010205,29.8382881 C104.107461,29.8382881 29.8178789,104.434008 29.8178789,196.010205 C29.8178789,287.586401 104.107461,362.161712 196.010205,362.161712 C276.728693,362.161712 344.222002,304.179101 359.120737,227.869006 L359.120737,227.869006 L389.63253,227.869006 C374.386838,321.118759 293.362212,392 196.010205,392 C87.8208986,392 0,304.179101 0,196.010205 C0,87.8208986 87.8208986,0 196.010205,0 Z M152.603863,81.7348675 C167.869964,108.164815 183.442203,134.982538 198.728713,161.412485 L245.180111,82.0614151 L331.327454,231.640631 L284.182142,310.991701 L212.627396,188.209799 L179.380767,245.171948 L229.914011,245.171948 C228.454343,247.611258 219.569766,262.873702 210.683872,278.087054 L209.573666,279.987536 C200.330838,295.807237 191.422211,310.991701 191.238528,310.991701 L120.051148,187.515885 C108.519935,206.190326 97.3152705,225.86482 86.1310147,245.171948 L132.92937,245.171948 L94.2742958,310.624335 L56.6396834,245.171948 L150.909897,85.122799 L152.603863,81.7348675 Z" id="Combined-Shape" fill="#C6A04A"></path>
    </g>
</svg>